<svg width="32" height="32" viewBox="0 0 32 32" fill="none" xmlns="http://www.w3.org/2000/svg">
  <!-- Background circle for better visibility -->
  <rect width="32" height="32" rx="6" fill="#ffffff"/>
  
  <!-- Main 'a' letterform - matches the reference design -->
  <path d="M8 20C8 15.5817 11.5817 12 16 12C20.4183 12 24 15.5817 24 20C24 24.4183 20.4183 28 16 28C11.5817 28 8 24.4183 8 20Z" fill="#4ECDC4"/>
  
  <!-- Inner circle (hole of the 'a') -->
  <circle cx="16" cy="20" r="4" fill="#ffffff"/>
  
  <!-- Vertical stem of the 'a' -->
  <rect x="20" y="16" width="3" height="12" rx="1.5" fill="#2C7873"/>
  
  <!-- Connection between circle and stem -->
  <path d="M20 20C20 17.7909 18.2091 16 16 16C15.4477 16 15 16.4477 15 17C15 17.5523 15.4477 18 16 18C17.1046 18 18 18.8954 18 20V24C18 24.5523 18.4477 25 19 25C19.5523 25 20 24.5523 20 24V20Z" fill="#2C7873"/>
</svg>